<svg id="Layer_1" data-name="Layer 1" xmlns="http://www.w3.org/2000/svg" xmlns:xlink="http://www.w3.org/1999/xlink" viewBox="0 0 1000 1000"><defs><style>.cls-1{fill:#1e1e1c;}.cls-2{fill:url(#linear-gradient);}</style><linearGradient id="linear-gradient" x1="706.26" y1="705.24" x2="265.93" y2="264.91" gradientUnits="userSpaceOnUse"><stop offset="0" stop-color="#ee2a7b"/><stop offset="0.12" stop-color="#d03082"/><stop offset="0.3" stop-color="#ab388b"/><stop offset="0.48" stop-color="#8e3e92"/><stop offset="0.66" stop-color="#7a4397"/><stop offset="0.83" stop-color="#6d459a"/><stop offset="1" stop-color="#69469b"/></linearGradient></defs><rect class="cls-1" width="1000" height="1000" rx="500"/><path class="cls-2" d="M225.54,314.94a23.18,23.18,0,0,1,6.79-16.44l65.16-65.15a23.26,23.26,0,0,1,32.86,0L570.89,473.88a11.7,11.7,0,0,1,0,16.53l-81.5,81.49a11.67,11.67,0,0,1-16.52,0L232.33,331.37A23.16,23.16,0,0,1,225.54,314.94ZM546.1,482.15,313.83,249.88l-65,65.15L481.13,547.12Zm-76.66,81.49a11.66,11.66,0,0,1,3.43-8.26l81.49-81.5A11.7,11.7,0,0,1,566,471l21,6.29a220.63,220.63,0,0,1,92.53,55.2l22.66,22.66a11.7,11.7,0,0,1,0,16.53L572.65,701.19a11.68,11.68,0,0,1-16.53,0l-25.36-25.35a221.17,221.17,0,0,1-52.9-85.29l-7.8-23.18A11.45,11.45,0,0,1,469.44,563.64ZM566,495.34l-71.44,71.44L500,583.09a197.65,197.65,0,0,0,47.28,76.22l17.09,17.09,113-113L663,549a197.26,197.26,0,0,0-82.7-49.33h0ZM372,387.53l9.13,9.13a11.69,11.69,0,0,0,16.53-16.53L388.54,371A11.68,11.68,0,0,0,372,387.53Zm30.83,30.83,25.88,25.88a11.68,11.68,0,1,0,16.53-16.52l-25.88-25.88a11.68,11.68,0,1,0-16.53,16.52Zm253,253,33.86,33.86a11.69,11.69,0,0,0,16.53-16.53l-33.87-33.86a11.68,11.68,0,1,0-16.52,16.53Zm46.26-36.44,58.92,8.81a11.68,11.68,0,1,0,3.45-23.11l-58.91-8.81a11.68,11.68,0,0,0-13.29,9.82,11.55,11.55,0,0,0-.13,1.75A11.69,11.69,0,0,0,702.13,634.94Zm-89.29,69.63,8.81,58.92A11.69,11.69,0,0,0,644.77,760L636,701.11a11.69,11.69,0,0,0-23.25,1.72A11.51,11.51,0,0,0,612.84,704.57Z" transform="translate(0 0)"/></svg>